<svg height="512" viewBox="0 0 56 56" width="512" xmlns="http://www.w3.org/2000/svg"><g id="Page-1" fill="none" fill-rule="evenodd"><g id="043---Open-Folder" fill="rgb(0,0,0)" fill-rule="nonzero"><path id="Shape" d="m37.628 14.939c0 .021.012.039.012.061v.01c.2432758 1.6555169.3642699 3.3267056.362 5-.0054907.5491559-.4528178.9911258-1.002.99h-5.788l1.154 1.292 10.9 12.2c.0956188.1066542.2323882.1671769.3756263.1662207s.2791873-.0632995.3733737-.1712207l10.198-11.676c.008-.008.014-.017.022-.024l1.558-1.787h-4.793c-.2733823.0002894-.5349638-.1113583-.7238805-.3089651s-.2886952-.4639418-.2761195-.7370349c-.0517344-4.7919556-1.8900097-9.3921013-5.155-12.9-3.635-3.8-8.94-6.076-15.814-6.8 3.341 2.235 7.382 6.575 8.597 14.685z"/><path id="Shape" d="m55.084 24.854-10.084 11.553c-.3607586.3704194-.8549441.5807724-1.372.584-.4835096.0011186-.9474801-.1907327-1.289-.533-.013-.014-.027-.027-.039-.042l-7.517-8.416h-7.783c-.5522847 0-1-.4477153-1-1s.4477153-1 1-1h6l-1.79-2h-11.87c-1.329402.0047709-2.4992269.8785866-2.881 2.152l-7.811 23.167c-.13699288.4070083-.5185552.6811053-.948.681-.10852247-.0000272-.21629908-.0179337-.319-.053-.52313244-.1760832-.80466382-.7427266-.629-1.266l7.8-23.13c.6435589-2.1063034 2.585578-3.5465937 4.788-3.551h10.095c-.4582456-.5432921-.5591745-1.3032889-.2586116-1.9473521.3005628-.6440632.9478723-1.0548821 1.6586116-1.0526479h5.154c-.029-1.057-.1-2.055-.217-3h-20.432c-1.329402.0047709-2.4992269.8785866-2.881 2.152l-1.9 5.657c-.1369929.4070083-.5185552.6811053-.948.681-.10846828.0003131-.21624638-.0172558-.319-.052-.52313244-.1760832-.80466382-.7427266-.629-1.266l1.89-5.62c.6430909-2.1063468 2.5846744-3.5470204 4.787-3.552h20.113c-.3838842-2.0890205-1.0718615-4.11050139-2.042-6h-9.191c-1.7247445.00280677-3.3291618-.88349678-4.245-2.345l-2.644-4.247c-.5513722-.87705896-1.5150257-1.40893826-2.551-1.408h-11.78c-1.65685425 0-3 1.34314575-3 3v50c0 1.6568542 1.34314575 3 3 3h41.14c1.2820115.0001065 2.4215219-.8168175 2.833-2.031l8.91-26.161c.3070197-1.0566058-.001224-2.1962201-.799-2.954zm-41.084-21.854c0-.55228475.4477153-1 1-1s1 .44771525 1 1v2c0 .55228475-.4477153 1-1 1s-1-.44771525-1-1zm-4 0c0-.55228475.4477153-1 1-1s1 .44771525 1 1v2c0 .55228475-.4477153 1-1 1s-1-.44771525-1-1zm-6 2c0 .55228475-.44771525 1-1 1s-1-.44771525-1-1v-2c0-.55228475.44771525-1 1-1s1 .44771525 1 1zm2 0v-2c0-.55228475.44771525-1 1-1s1 .44771525 1 1v2c0 .55228475-.44771525 1-1 1s-1-.44771525-1-1zm16 23h-2c-.5522847 0-1-.4477153-1-1s.4477153-1 1-1h2c.5522847 0 1 .4477153 1 1s-.4477153 1-1 1z"/></g></g></svg>