<svg height="448pt" viewBox="-8 0 448 448.00001" width="448pt" xmlns="http://www.w3.org/2000/svg"><path d="m220 68.710938-24.800781-36.878907c-13.351563-19.902343-35.75-31.8437498-59.71875-31.832031h-71.480469v8c0 4.417969-3.582031 8-8 8h-16c-1.578125-.003906-3.125-.46875-4.441406-1.34375l-21.957032-14.65625h-13.601562v64h13.601562l21.984376-14.65625c1.308593-.871094 2.84375-1.335938 4.414062-1.34375h16c4.417969 0 8 3.582031 8 8v40h64v-56c0-4.417969 3.582031-8 8-8 16.972656-.109375 33.617188 4.667969 47.953125 13.761719zm0 0"/><path d="m88 112h16v112h-16zm0 0"/><path d="m120 240h-48v184c0 13.253906 10.746094 24 24 24s24-10.746094 24-24zm0 0"/><path d="m392 0h16v32h-16zm0 0"/><path d="m420.425781 256.800781 11.574219-5.746093v-11.054688h-64v11.054688l11.574219 5.785156c2.714843 1.355468 4.425781 4.128906 4.425781 7.160156v16c0 2.121094-.84375 4.15625-2.34375 5.65625l-5.65625 5.65625v132.6875c0 13.253906 10.746094 24 24 24s24-10.746094 24-24v-132.6875l-5.65625-5.65625c-1.5-1.5-2.34375-3.535156-2.34375-5.65625v-16c-.015625-3.046875 1.699219-5.839844 4.425781-7.199219zm0 0"/><path d="m392 48h16v176h-16zm0 0"/><path d="m288 138.007812v37.992188h23.375c-2.15625-15.367188-10.628906-29.140625-23.375-37.992188zm0 0"/><path d="m280 251.878906c-1.382812.496094-2.800781.890625-4.214844 1.296875-.464844.128907-.914062.296875-1.378906.417969-2.480469.636719-4.996094 1.140625-7.535156 1.503906-1.023438.160156-2.046875.277344-3.078125.390625-1.898438.199219-3.800781.320313-5.714844.375-.695313 0-1.382813.136719-2.078125.136719s-1.382812-.121094-2.078125-.136719c-1.914063-.054687-3.816406-.175781-5.714844-.375-1.03125-.113281-2.054687-.230469-3.070312-.382812-2.550781-.375-5.078125-.882813-7.578125-1.519531-.429688-.113282-.796875-.265626-1.269532-.394532-1.441406-.40625-2.882812-.800781-4.289062-1.3125v172.121094c0 13.253906 10.746094 24 24 24s24-10.746094 24-24zm0 0"/><path d="m311.382812 192h-63.382812c-4.417969 0-8-3.582031-8-8v-53.710938c-21.417969 6.398438-36.976562 24.921876-39.585938 47.121094-2.609374 22.199219 8.234376 43.824219 27.585938 55.015625 4.222656 2.480469 8.765625 4.363281 13.503906 5.597657 14.328125 3.777343 29.570313 1.789062 42.449219-5.542969 14.867187-8.570313 24.980469-23.492188 27.429687-40.480469zm0 0"/></svg>