<svg id="Capa_1" enable-background="new 0 0 512 512" height="512" viewBox="0 0 512 512" width="512" xmlns="http://www.w3.org/2000/svg"><g><path d="m496 240h-103.698l11.426-137.11c2.2-26.4-6.826-52.722-24.763-72.215-17.938-19.494-43.418-30.675-69.909-30.675h-106.112c-26.491 0-51.972 11.181-69.909 30.675-17.937 19.493-26.963 45.814-24.763 72.215l11.426 137.11h-103.698c-8.284 0-15 6.716-15 15v62c0 8.284 6.716 15 15 15h15v165c0 8.284 6.716 15 15 15h420c8.284 0 15-6.716 15-15v-165h15c8.284 0 15-6.716 15-15v-62c0-8.284-6.716-15-15-15zm-340.888-189.013c12.453-13.534 29.441-20.987 47.832-20.987h106.111c18.392 0 35.379 7.453 47.832 20.987s18.471 31.082 16.943 49.41l-11.632 139.603h-11.329c-1.794-34.422-21.998-64.047-50.926-79.205 9.954-10.714 16.057-25.052 16.057-40.795 0-33.084-26.916-60-60-60s-60 26.916-60 60c0 15.743 6.103 30.081 16.057 40.795-28.928 15.158-49.132 44.783-50.926 79.205h-11.329l-11.633-139.603c-1.527-18.328 4.49-35.876 16.943-49.41zm100.888 129.013c34.157 0 62.224 26.489 64.789 60h-129.578c2.565-33.511 30.632-60 64.789-60zm-30-60c0-16.542 13.458-30 30-30s30 13.458 30 30-13.458 30-30 30-30-13.458-30-30zm225 362h-390v-150h390zm30-180h-450v-32h450z"/><path d="m106 392h300c8.284 0 15-6.716 15-15s-6.716-15-15-15h-300c-8.284 0-15 6.716-15 15s6.716 15 15 15z"/><path d="m106 452h300c8.284 0 15-6.716 15-15s-6.716-15-15-15h-300c-8.284 0-15 6.716-15 15s6.716 15 15 15z"/></g></svg>