<svg id="Layer_1" enable-background="new 0 0 512 512" height="512" viewBox="0 0 512 512" width="512" xmlns="http://www.w3.org/2000/svg"><path d="m231 242h45v150h-45z"/><path d="m156 332h45v60h-45z"/><path d="m81 242h45v150h-45z"/><path d="m156 242h45v60h-45z"/><path d="m306 332h50v60h-50z"/><path d="m386 242h45v150h-45z"/><path d="m306 242h50v60h-50z"/><path d="m61 182h390v30h-390z"/><path d="m0 482h31v-90h20v-60h-51z"/><path d="m0 242h51v60h-51z"/><path d="m341 152-70-52.5v-9.5h90v-90h-120v99.5l-70 52.5z"/><path d="m61 422h390v90h-390z"/><path d="m461 242h51v60h-51z"/><path d="m461 392h20v90h31v-150h-51z"/></svg>